G04 Layer: TopLayer*
G04 EasyEDA Pro v2.2.38.8, 2026-02-17 02:39:48*
G04 Gerber Generator version 0.3*
G04 Scale: 100 percent, Rotated: No, Reflected: No*
G04 Dimensions in millimeters*
G04 Leading zeros omitted, absolute positions, 4 integers and 5 decimals*
%FSLAX45Y45*%
%MOMM*%
%ADD10C,1.9812*%
%ADD11O,1.6X0.9*%
%ADD12R,1.6X0.9*%
%ADD13C,0.508*%
G75*


G04 Pad Start*
G54D10*
G01X558800Y6565900D03*
G01X558800Y6819900D03*
G01X558800Y7073900D03*
G01X558800Y7327925D03*
G01X571500Y5969000D03*
G01X571500Y6223000D03*
G01X571500Y5626100D03*
G01X571500Y5372100D03*
G54D11*
G01X1244600Y7162800D03*
G01X1244600Y7035800D03*
G54D12*
G01X1244600Y6908800D03*
G54D10*
G01X2082800Y6007100D03*
G01X2082800Y7023100D03*
G54D11*
G01X1244600Y6261100D03*
G01X1244600Y6134100D03*
G54D12*
G01X1244600Y6007100D03*
G54D10*
G01X1714500Y6019800D03*
G01X1714500Y7035800D03*
G04 Pad End*

G04 Track Start*
G54D13*
G01X571500Y5372100D02*
G01X723900Y5524500D01*
G01X1473200Y6261100D02*
G01X1346200Y6134100D01*
G01X1244600Y6134100D01*
G01X1244600Y6261100D02*
G01X939800Y6565900D01*
G01X558800Y6565900D01*
G01X584200Y7048500D02*
G01X558800Y7073900D01*
G01X1244600Y7162800D02*
G01X1231900Y7150100D01*
G01X1016000Y7150100D01*
G01X914400Y7048500D01*
G01X584200Y7048500D01*
G01X723900Y5524500D02*
G01X1600200Y5524500D01*
G01X2082800Y6007100D01*
G01X1714500Y7035800D02*
G01X1473200Y6794500D01*
G01X1473200Y6261100D01*
G01X1511300Y7188200D02*
G01X1358900Y7035800D01*
G01X1244600Y7035800D01*
G01X2082800Y7023100D02*
G01X1917700Y7188200D01*
G01X1511300Y7188200D01*
G01X749300Y5765800D02*
G01X1511300Y5765800D01*
G01X1714500Y5969000D01*
G01X1714500Y6019800D01*
G01X749300Y5765800D02*
G01X660400Y5676900D01*
G04 Track End*

M02*

