G04 Layer: TopSilkscreenLayer*
G04 EasyEDA Pro v2.2.38.8, 2026-02-17 02:39:48*
G04 Gerber Generator version 0.3*
G04 Scale: 100 percent, Rotated: No, Reflected: No*
G04 Dimensions in millimeters*
G04 Leading zeros omitted, absolute positions, 4 integers and 5 decimals*
%FSLAX45Y45*%
%MOMM*%
%ADD10C,0.1524*%
%ADD11C,0.254*%
G75*


G04 Text Start*
G54D10*
G01X772160Y6257290D02*
G01X772160Y6201410D01*
G01X744220Y6229350D02*
G01X799846Y6229350D01*
G01X744220Y5988050D02*
G01X799846Y5988050D01*
G01X790702Y5666740D02*
G01X787654Y5673090D01*
G01X781304Y5679186D01*
G01X775208Y5682234D01*
G01X762762Y5682234D01*
G01X756666Y5679186D01*
G01X750316Y5673090D01*
G01X747268Y5666740D01*
G01X744220Y5657596D01*
G01X744220Y5642102D01*
G01X747268Y5632704D01*
G01X750316Y5626608D01*
G01X756666Y5620258D01*
G01X762762Y5617210D01*
G01X775208Y5617210D01*
G01X781304Y5620258D01*
G01X787654Y5626608D01*
G01X790702Y5632704D01*
G01X790702Y5642102D01*
G01X775208Y5642102D02*
G01X790702Y5642102D01*
G01X820928Y5682234D02*
G01X820928Y5617210D01*
G01X820928Y5682234D02*
G01X848614Y5682234D01*
G01X858012Y5679186D01*
G01X861060Y5676138D01*
G01X864108Y5669788D01*
G01X864108Y5660644D01*
G01X861060Y5654548D01*
G01X858012Y5651246D01*
G01X848614Y5648198D01*
G01X820928Y5648198D01*
G01X894334Y5682234D02*
G01X894334Y5617210D01*
G01X943102Y5682234D02*
G01X936752Y5679186D01*
G01X930656Y5673090D01*
G01X927608Y5666740D01*
G01X924560Y5657596D01*
G01X924560Y5642102D01*
G01X927608Y5632704D01*
G01X930656Y5626608D01*
G01X936752Y5620258D01*
G01X943102Y5617210D01*
G01X955294Y5617210D01*
G01X961644Y5620258D01*
G01X967740Y5626608D01*
G01X970788Y5632704D01*
G01X974090Y5642102D01*
G01X974090Y5657596D01*
G01X970788Y5666740D01*
G01X967740Y5673090D01*
G01X961644Y5679186D01*
G01X955294Y5682234D01*
G01X943102Y5682234D01*
G01X1073658Y5669788D02*
G01X1079754Y5673090D01*
G01X1088898Y5682234D01*
G01X1088898Y5617210D01*
G01X790702Y5412740D02*
G01X787654Y5419090D01*
G01X781304Y5425186D01*
G01X775208Y5428234D01*
G01X762762Y5428234D01*
G01X756666Y5425186D01*
G01X750316Y5419090D01*
G01X747268Y5412740D01*
G01X744220Y5403596D01*
G01X744220Y5388102D01*
G01X747268Y5378704D01*
G01X750316Y5372608D01*
G01X756666Y5366258D01*
G01X762762Y5363210D01*
G01X775208Y5363210D01*
G01X781304Y5366258D01*
G01X787654Y5372608D01*
G01X790702Y5378704D01*
G01X790702Y5388102D01*
G01X775208Y5388102D02*
G01X790702Y5388102D01*
G01X820928Y5428234D02*
G01X820928Y5363210D01*
G01X820928Y5428234D02*
G01X848614Y5428234D01*
G01X858012Y5425186D01*
G01X861060Y5422138D01*
G01X864108Y5415788D01*
G01X864108Y5406644D01*
G01X861060Y5400548D01*
G01X858012Y5397246D01*
G01X848614Y5394198D01*
G01X820928Y5394198D01*
G01X894334Y5428234D02*
G01X894334Y5363210D01*
G01X943102Y5428234D02*
G01X936752Y5425186D01*
G01X930656Y5419090D01*
G01X927608Y5412740D01*
G01X924560Y5403596D01*
G01X924560Y5388102D01*
G01X927608Y5378704D01*
G01X930656Y5372608D01*
G01X936752Y5366258D01*
G01X943102Y5363210D01*
G01X955294Y5363210D01*
G01X961644Y5366258D01*
G01X967740Y5372608D01*
G01X970788Y5378704D01*
G01X974090Y5388102D01*
G01X974090Y5403596D01*
G01X970788Y5412740D01*
G01X967740Y5419090D01*
G01X961644Y5425186D01*
G01X955294Y5428234D01*
G01X943102Y5428234D01*
G01X1076706Y5412740D02*
G01X1076706Y5415788D01*
G01X1079754Y5422138D01*
G01X1082802Y5425186D01*
G01X1088898Y5428234D01*
G01X1101344Y5428234D01*
G01X1107694Y5425186D01*
G01X1110742Y5422138D01*
G01X1113790Y5415788D01*
G01X1113790Y5409692D01*
G01X1110742Y5403596D01*
G01X1104392Y5394198D01*
G01X1073658Y5363210D01*
G01X1116838Y5363210D01*
G01X749427Y7374890D02*
G01X749427Y7319010D01*
G01X721487Y7346950D02*
G01X777113Y7346950D01*
G01X731520Y7067550D02*
G01X787146Y7067550D01*
G01X749427Y6854190D02*
G01X749427Y6798310D01*
G01X721487Y6826250D02*
G01X777113Y6826250D01*
G01X721487Y6584950D02*
G01X777113Y6584950D01*
G01X706120Y6736334D02*
G01X706120Y6671310D01*
G01X706120Y6736334D02*
G01X746252Y6736334D01*
G01X706120Y6705346D02*
G01X731012Y6705346D01*
G01X801116Y6736334D02*
G01X776478Y6671310D01*
G01X801116Y6736334D02*
G01X826008Y6671310D01*
G01X785622Y6693154D02*
G01X816610Y6693154D01*
G01X856234Y6736334D02*
G01X856234Y6671310D01*
G01X856234Y6736334D02*
G01X899414Y6671310D01*
G01X899414Y6736334D02*
G01X899414Y6671310D01*
G01X1002030Y6720840D02*
G01X1002030Y6723888D01*
G01X1005078Y6730238D01*
G01X1008126Y6733286D01*
G01X1014222Y6736334D01*
G01X1026668Y6736334D01*
G01X1033018Y6733286D01*
G01X1036066Y6730238D01*
G01X1039114Y6723888D01*
G01X1039114Y6717792D01*
G01X1036066Y6711696D01*
G01X1029716Y6702298D01*
G01X998982Y6671310D01*
G01X1042162Y6671310D01*
G01X670179Y7250684D02*
G01X670179Y7185660D01*
G01X670179Y7250684D02*
G01X710311Y7250684D01*
G01X670179Y7219696D02*
G01X695071Y7219696D01*
G01X765175Y7250684D02*
G01X740537Y7185660D01*
G01X765175Y7250684D02*
G01X790067Y7185660D01*
G01X749681Y7207504D02*
G01X780669Y7207504D01*
G01X820293Y7250684D02*
G01X820293Y7185660D01*
G01X820293Y7250684D02*
G01X863473Y7185660D01*
G01X863473Y7250684D02*
G01X863473Y7185660D01*
G01X963041Y7238238D02*
G01X969137Y7241540D01*
G01X978281Y7250684D01*
G01X978281Y7185660D01*
G01X1235710Y7422134D02*
G01X1235710Y7357110D01*
G01X1214120Y7422134D02*
G01X1257554Y7422134D01*
G01X1287780Y7409688D02*
G01X1293876Y7412990D01*
G01X1303020Y7422134D01*
G01X1303020Y7357110D01*
G01X1836420Y6964934D02*
G01X1836420Y6899910D01*
G01X1836420Y6964934D02*
G01X1864360Y6964934D01*
G01X1873504Y6961886D01*
G01X1876552Y6958838D01*
G01X1879854Y6952488D01*
G01X1879854Y6946392D01*
G01X1876552Y6940296D01*
G01X1873504Y6937248D01*
G01X1864360Y6933946D01*
G01X1836420Y6933946D01*
G01X1858010Y6933946D02*
G01X1879854Y6899910D01*
G01X1913128Y6949440D02*
G01X1913128Y6952488D01*
G01X1916176Y6958838D01*
G01X1919224Y6961886D01*
G01X1925320Y6964934D01*
G01X1937766Y6964934D01*
G01X1944116Y6961886D01*
G01X1947164Y6958838D01*
G01X1950212Y6952488D01*
G01X1950212Y6946392D01*
G01X1947164Y6940296D01*
G01X1940814Y6930898D01*
G01X1910080Y6899910D01*
G01X1953260Y6899910D01*
G01X1223010Y6507734D02*
G01X1223010Y6442710D01*
G01X1201420Y6507734D02*
G01X1244854Y6507734D01*
G01X1278128Y6492240D02*
G01X1278128Y6495288D01*
G01X1281176Y6501638D01*
G01X1284224Y6504686D01*
G01X1290320Y6507734D01*
G01X1302766Y6507734D01*
G01X1309116Y6504686D01*
G01X1312164Y6501638D01*
G01X1315212Y6495288D01*
G01X1315212Y6489192D01*
G01X1312164Y6483096D01*
G01X1305814Y6473698D01*
G01X1275080Y6442710D01*
G01X1318260Y6442710D01*
G01X1468120Y6964934D02*
G01X1468120Y6899910D01*
G01X1468120Y6964934D02*
G01X1496060Y6964934D01*
G01X1505204Y6961886D01*
G01X1508252Y6958838D01*
G01X1511554Y6952488D01*
G01X1511554Y6946392D01*
G01X1508252Y6940296D01*
G01X1505204Y6937248D01*
G01X1496060Y6933946D01*
G01X1468120Y6933946D01*
G01X1489710Y6933946D02*
G01X1511554Y6899910D01*
G01X1541780Y6952488D02*
G01X1547876Y6955790D01*
G01X1557020Y6964934D01*
G01X1557020Y6899910D01*
G04 Text End*

G04 PolygonModel Start*
G54D11*
G01X1394587Y7233790D02*
G01X1394587Y6837810D01*
G01X1394714Y7233920D02*
G03X1394714Y6837680I-149840J-198120D01*
G01X1955800Y6832600D02*
G01X1955800Y6705600D01*
G01X1955800Y6705600D02*
G01X1955800Y6197600D01*
G01X1955800Y6197600D02*
G01X2082800Y6197600D01*
G01X2082800Y6197600D02*
G01X2209800Y6197600D01*
G01X2209800Y6197600D02*
G01X2209800Y6705600D01*
G01X2209800Y6705600D02*
G01X2209800Y6832600D01*
G01X2209800Y6832600D02*
G01X2082800Y6832600D01*
G01X2082800Y6832600D02*
G01X1955800Y6832600D01*
G01X1955800Y6705600D02*
G01X2209800Y6705600D01*
G01X2082800Y6197600D02*
G01X2082800Y6134100D01*
G01X2082800Y6832600D02*
G01X2082800Y6896100D01*
G01X1394587Y6332090D02*
G01X1394587Y5936110D01*
G01X1394714Y6332220D02*
G03X1394714Y5935980I-149840J-198120D01*
G01X1587500Y6845300D02*
G01X1587500Y6718300D01*
G01X1587500Y6718300D02*
G01X1587500Y6210300D01*
G01X1587500Y6210300D02*
G01X1714500Y6210300D01*
G01X1714500Y6210300D02*
G01X1841500Y6210300D01*
G01X1841500Y6210300D02*
G01X1841500Y6718300D01*
G01X1841500Y6718300D02*
G01X1841500Y6845300D01*
G01X1841500Y6845300D02*
G01X1714500Y6845300D01*
G01X1714500Y6845300D02*
G01X1587500Y6845300D01*
G01X1587500Y6718300D02*
G01X1841500Y6718300D01*
G01X1714500Y6210300D02*
G01X1714500Y6146800D01*
G01X1714500Y6845300D02*
G01X1714500Y6908800D01*

M02*

